<svg version="1.1" id="Layer_1" xmlns="http://www.w3.org/2000/svg" xmlns:xlink="http://www.w3.org/1999/xlink" x="0px" y="0px" width="32px" height="32px" viewBox="0 0 32 32" enable-background="new 0 0 32 32" xml:space="preserve">
  <g id="icon">
    <path d="M3,11v15.7c0,0.6947,0.6841,1.3,1.4382,1.3h23.1756c0.754,0,1.3862,-0.6053,1.3862,-1.3V11H3zM22,18.0833c0,1.1138,-0.9029,1.9167,-2.0167,1.9167h-7.9666C10.9029,20,10,19.1971,10,18.0833v-0.0666c0,-1.1138,0.9029,-2.0167,2.0167,-2.0167h7.9666c1.1138,0,2.0167,0.9029,2.0167,2.0167V18.0833z" fill="#EAB765"/>
    <path d="M30,4.5125c0,-0.283,-0.2295,-0.5125,-0.5125,-0.5125H2.5125C2.2295,4,2,4.2295,2,4.5125v4.975c0,0.283,0.2295,0.5125,0.5125,0.5125h26.975c0.283,0,0.5125,-0.2295,0.5125,-0.5125V4.5125z" fill="#EAB765"/>
  </g>
</svg>
