<svg version="1.1" id="Layer_1" xmlns="http://www.w3.org/2000/svg" xmlns:xlink="http://www.w3.org/1999/xlink" x="0px" y="0px" width="16px" height="16px" viewBox="0 0 16 16" enable-background="new 0 0 16 16" xml:space="preserve">
  <g id="icon">
    <path d="M1,6v8.328c0,0.352,0.3533,0.672,0.7353,0.672H14.3c0.382,0,0.7,-0.32,0.7,-0.672V6H1zM11.7,9.0289c0,0.5363,-0.4575,0.9711,-1.0218,0.9711H5.6218C5.0575,10,4.6,9.5652,4.6,9.0289v-0.0578C4.6,8.4348,5.0575,8,5.6218,8h5.0564C11.2425,8,11.7,8.4348,11.7,8.9711V9.0289z" fill="#EAB765"/>
    <path d="M16,1.5125c0,-0.283,-0.2295,-0.5125,-0.5125,-0.5125H0.5125C0.2295,1,0,1.2295,0,1.5125v2.975C0,4.7705,0.2295,5,0.5125,5h14.975c0.283,0,0.5125,-0.2295,0.5125,-0.5125V1.5125z" fill="#EAB765"/>
  </g>
</svg>